<svg xmlns="http://www.w3.org/2000/svg" width="1600" height="900" viewBox="0 0 1600 900">
<rect width="1600" height="900" fill="#ffffff"/>
<text x="60" y="70" font-family="Arial" font-size="32" font-weight="700">CLM-SOP-C4 Soprano C Chalumeau - Dimensioned Prototype Sheet</text>
<text x="60" y="105" font-family="Arial" font-size="16">First-pass dimensions. Drill undersize and tune. Do not treat hole diameters as final until measured.</text>
<line x1="160" y1="270" x2="1300.48" y2="270" stroke="#8b5a2b" stroke-width="78" stroke-linecap="round"/>
<line x1="160" y1="270" x2="1300.48" y2="270" stroke="#111827" stroke-width="2" stroke-dasharray="10 8"/>
<text x="160" y="200" font-family="Arial" font-size="14">DATUM_BELL_FACE</text>
<text x="1220.48" y="200" font-family="Arial" font-size="14">DATUM_REED_SEAT</text>
<line x1="160" y1="215" x2="160" y2="360" stroke="#0f172a" stroke-width="2"/>
<line x1="1300.48" y1="215" x2="1300.48" y2="360" stroke="#0f172a" stroke-width="2"/>
<line x1="160" y1="350" x2="1300.48" y2="350" stroke="#0f172a" stroke-width="1"/>
<text x="670.24" y="385" font-family="Arial" font-size="16">Final body length 12.672 in</text>
<circle cx="215.98" cy="270" r="7" fill="#dc2626" stroke="#fff" stroke-width="2"/>
<line x1="215.98" y1="228" x2="215.98" y2="184" stroke="#64748b" stroke-width="1"/>
<text x="187.98" y="160" font-family="Arial" font-size="13" font-weight="700">K01</text>
<text x="177.98" y="177" font-family="Arial" font-size="12">C#4</text>
<text x="173.98" y="194" font-family="Arial" font-size="12">X 0.622</text>
<text x="173.98" y="211" font-family="Arial" font-size="12">D 0.16</text>
<circle cx="278.26" cy="270" r="7" fill="#111827" stroke="#fff" stroke-width="2"/>
<line x1="278.26" y1="228" x2="278.26" y2="146" stroke="#64748b" stroke-width="1"/>
<text x="250.26" y="122" font-family="Arial" font-size="13" font-weight="700">H01</text>
<text x="240.26" y="139" font-family="Arial" font-size="12">D4</text>
<text x="236.26" y="156" font-family="Arial" font-size="12">X 1.314</text>
<text x="236.26" y="173" font-family="Arial" font-size="12">D 0.18</text>
<circle cx="391.84000000000003" cy="270" r="7" fill="#111827" stroke="#fff" stroke-width="2"/>
<line x1="391.84000000000003" y1="228" x2="391.84000000000003" y2="184" stroke="#64748b" stroke-width="1"/>
<text x="363.84000000000003" y="160" font-family="Arial" font-size="13" font-weight="700">H02</text>
<text x="353.84000000000003" y="177" font-family="Arial" font-size="12">E4</text>
<text x="349.84000000000003" y="194" font-family="Arial" font-size="12">X 2.576</text>
<text x="349.84000000000003" y="211" font-family="Arial" font-size="12">D 0.19</text>
<circle cx="443.22999999999996" cy="270" r="7" fill="#111827" stroke="#fff" stroke-width="2"/>
<line x1="443.22999999999996" y1="228" x2="443.22999999999996" y2="146" stroke="#64748b" stroke-width="1"/>
<text x="415.22999999999996" y="122" font-family="Arial" font-size="13" font-weight="700">H03</text>
<text x="405.22999999999996" y="139" font-family="Arial" font-size="12">F4</text>
<text x="401.22999999999996" y="156" font-family="Arial" font-size="12">X 3.147</text>
<text x="401.22999999999996" y="173" font-family="Arial" font-size="12">D 0.17</text>
<circle cx="538.99" cy="270" r="7" fill="#111827" stroke="#fff" stroke-width="2"/>
<line x1="538.99" y1="228" x2="538.99" y2="184" stroke="#64748b" stroke-width="1"/>
<text x="510.99" y="160" font-family="Arial" font-size="13" font-weight="700">H04</text>
<text x="500.99" y="177" font-family="Arial" font-size="12">G4</text>
<text x="496.99" y="194" font-family="Arial" font-size="12">X 4.211</text>
<text x="496.99" y="211" font-family="Arial" font-size="12">D 0.19</text>
<circle cx="624.13" cy="270" r="7" fill="#111827" stroke="#fff" stroke-width="2"/>
<line x1="624.13" y1="228" x2="624.13" y2="146" stroke="#64748b" stroke-width="1"/>
<text x="596.13" y="122" font-family="Arial" font-size="13" font-weight="700">H05</text>
<text x="586.13" y="139" font-family="Arial" font-size="12">A4</text>
<text x="582.13" y="156" font-family="Arial" font-size="12">X 5.157</text>
<text x="582.13" y="173" font-family="Arial" font-size="12">D 0.2</text>
<circle cx="661.66" cy="270" r="7" fill="#dc2626" stroke="#fff" stroke-width="2"/>
<line x1="661.66" y1="228" x2="661.66" y2="184" stroke="#64748b" stroke-width="1"/>
<text x="633.66" y="160" font-family="Arial" font-size="13" font-weight="700">K02</text>
<text x="623.66" y="177" font-family="Arial" font-size="12">Bb4</text>
<text x="619.66" y="194" font-family="Arial" font-size="12">X 5.574</text>
<text x="619.66" y="211" font-family="Arial" font-size="12">D 0.15</text>
<circle cx="698.9200000000001" cy="270" r="7" fill="#111827" stroke="#fff" stroke-width="2"/>
<line x1="698.9200000000001" y1="228" x2="698.9200000000001" y2="146" stroke="#64748b" stroke-width="1"/>
<text x="670.9200000000001" y="122" font-family="Arial" font-size="13" font-weight="700">H06</text>
<text x="660.9200000000001" y="139" font-family="Arial" font-size="12">B4</text>
<text x="656.9200000000001" y="156" font-family="Arial" font-size="12">X 5.988</text>
<text x="656.9200000000001" y="173" font-family="Arial" font-size="12">D 0.17</text>
<circle cx="733.3" cy="270" r="7" fill="#111827" stroke="#fff" stroke-width="2"/>
<line x1="733.3" y1="228" x2="733.3" y2="184" stroke="#64748b" stroke-width="1"/>
<text x="705.3" y="160" font-family="Arial" font-size="13" font-weight="700">H07</text>
<text x="695.3" y="177" font-family="Arial" font-size="12">C5</text>
<text x="691.3" y="194" font-family="Arial" font-size="12">X 6.37</text>
<text x="691.3" y="211" font-family="Arial" font-size="12">D 0.16</text>
<text x="60" y="610" font-family="Arial" font-size="20" font-weight="700">Manufacturing Notes</text>
<text x="60" y="645" font-family="Arial" font-size="15">1. Bore ID 0.500 in, body OD 0.875 in, wall 0.1875 in. Use commercial reed/mouthpiece for first test.</text>
<text x="60" y="672" font-family="Arial" font-size="15">2. H holes are finger holes. K holes are optional normally closed lever keys.</text>
<text x="60" y="699" font-family="Arial" font-size="15">3. Coordinates are from bell datum. Re-check after final root trim.</text>
<rect x="60" y="760" width="1480" height="78" fill="none" stroke="#0f172a" stroke-width="2"/>
<text x="80" y="792" font-family="Arial" font-size="15">Title block: Chalumeau Soprano C, REV-A, units inch, source CLM-001 design table.</text>
<text x="80" y="818" font-family="Arial" font-size="15">Tuning-critical features: bore ID, body length, hole center X, hole diameter, pad seal for K01/K02.</text>
</svg>
