<svg xmlns="http://www.w3.org/2000/svg" width="1600" height="900" viewBox="0 0 1600 900">
<rect width="1600" height="900" fill="#ffffff"/>
<text x="60" y="70" font-family="Arial" font-size="32" font-weight="700">Chalumeau K01/K02 Lever Detail</text>
<text x="60" y="105" font-family="Arial" font-size="16">Simple normally closed pad key. Press touchpiece to open tone hole.</text>
<rect x="160" y="390" width="950" height="95" rx="40" fill="#8b5a2b" stroke="#4b2e12" stroke-width="4"/>
<line x1="190" y1="438" x2="1080" y2="438" stroke="#111827" stroke-width="3" stroke-dasharray="12 8"/>
<circle cx="620" cy="392" r="38" fill="#111827"/>
<circle cx="620" cy="392" r="52" fill="none" stroke="#78350f" stroke-width="10"/>
<rect x="548" y="285" width="410" height="28" rx="12" fill="#c9a227" stroke="#7c5b00" stroke-width="3"/>
<circle cx="620" cy="299" r="54" fill="none" stroke="#c9a227" stroke-width="18"/>
<circle cx="880" cy="299" r="18" fill="#64748b" stroke="#1f2937" stroke-width="3"/>
<line x1="880" y1="250" x2="880" y2="348" stroke="#1f2937" stroke-width="8"/>
<rect x="960" y="250" width="130" height="46" rx="18" fill="#c9a227" stroke="#7c5b00" stroke-width="3"/>
<path d="M735 315 C760 365, 800 365, 830 315" fill="none" stroke="#334155" stroke-width="5"/>
<text x="545" y="225" font-family="Arial" font-size="15">pad cup + leather/cork pad</text>
<line x1="620" y1="240" x2="620" y2="286" stroke="#64748b" stroke-width="2"/>
<text x="825" y="222" font-family="Arial" font-size="15">1/16 in pivot rod between posts</text>
<line x1="880" y1="230" x2="880" y2="250" stroke="#64748b" stroke-width="2"/>
<text x="967" y="225" font-family="Arial" font-size="15">touchpiece</text>
<line x1="1010" y1="232" x2="1025" y2="250" stroke="#64748b" stroke-width="2"/>
<text x="735" y="377" font-family="Arial" font-size="15">spring closes pad</text>
<line x1="770" y1="363" x2="765" y2="324" stroke="#64748b" stroke-width="2"/>
<text x="60" y="610" font-family="Arial" font-size="20" font-weight="700">Key Variables</text>
<text x="60" y="644" font-family="Arial" font-size="15">CLM_K01_Dia_in, CLM_K01_Pad_OD_in, CLM_K01_Lever_L_in, CLM_Key_Pivot_Rod_Dia_in, CLM_Pad_Overhang_in.</text>
<text x="60" y="674" font-family="Arial" font-size="15">Default state: pad closed. Press lever to open. Add cork/felt stops to set key lift around 0.060-0.100 in.</text>
<text x="60" y="704" font-family="Arial" font-size="15">Leak-test before pitch tuning. A tiny leak will make the acoustic model look wrong.</text>
<rect x="60" y="760" width="1480" height="78" fill="none" stroke="#0f172a" stroke-width="2"/>
<text x="80" y="792" font-family="Arial" font-size="15">REV-A. This is a mechanism drawing, not a final decorative key shape.</text>
<text x="80" y="818" font-family="Arial" font-size="15">Material: brass prototype, nickel silver upgrade. Pad: leather-over-cork or clarinet skin pad.</text>
</svg>
